# xmcd
#
# Track frame offsets: 
#        150
#        22725
#        44906
#        61424
#        70929
#        84532
#        102442
#        111907
#        130255
#        145328
#
# Disc length: 2128 seconds
#
# Revision: 0
# Processed by: cddbd v1.5.2PL0 Copyright (c) Steve Scherf et al.
# Submitted via: ExactAudioCopy v0.99pb4
#
DISCID=90084e0a
DTITLE=The Memphis Sounds - Ike's Moods
DYEAR=2009
DGENRE=Soul
TTITLE0=Walk On By
TTITLE1=The Look Of Love
TTITLE2=Theme From Shaft
TTITLE3=Blue's Crib
TTITLE4=The Red Rooster
TTITLE5=Bumpy's Lament
TTITLE6=The Feeling Keeps On Coming
TTITLE7=Do Your Thing
TTITLE8=Run Fay Run
TTITLE9=Hung Up On My Baby
EXTD=
EXTT0=
EXTT1=
EXTT2=
EXTT3=
EXTT4=
EXTT5=
EXTT6=
EXTT7=
EXTT8=
EXTT9=
PLAYORDER=
